<svg width="24" height="24" viewBox="0 0 24 24" fill="none" xmlns="http://www.w3.org/2000/svg">
<path fill-rule="evenodd" clip-rule="evenodd" d="M10.5005 3.79758V8.81802C10.5005 9.61367 10.1844 10.3767 9.62183 10.9393L7.24478 13.3164C8.99213 13.192 10.7583 13.5404 12.3359 14.3292C14.0993 15.2109 16.14 15.442 18.0485 14.9649L18.3335 14.8937L14.3792 10.9393C13.8166 10.3767 13.5005 9.61367 13.5005 8.81802V3.79758C13.0047 3.76602 12.5045 3.75 12.0005 3.75C11.4965 3.75 10.9964 3.76602 10.5005 3.79758ZM15.0005 3.93576C15.3737 3.93623 15.6974 3.65833 15.7447 3.27849C15.796 2.86746 15.5043 2.4927 15.0933 2.44144C14.8367 2.40945 14.5789 2.38138 14.3199 2.3573C13.5561 2.28628 12.7825 2.25 12.0005 2.25C11.2186 2.25 10.4449 2.28628 9.68107 2.3573C9.42212 2.38138 9.1643 2.40945 8.9077 2.44144C8.49667 2.4927 8.20501 2.86746 8.25627 3.27849C8.30364 3.65833 8.62728 3.93623 9.00051 3.93576V8.81802C9.00051 9.21584 8.84247 9.59737 8.56117 9.87868L2.26797 16.1719C0.646832 17.793 1.36498 20.6474 3.73888 21.0527C6.42471 21.5112 9.18502 21.75 12.0005 21.75C14.816 21.75 17.5763 21.5112 20.2621 21.0527C22.636 20.6474 23.3542 17.793 21.733 16.1719L15.4398 9.87868C15.1585 9.59737 15.0005 9.21584 15.0005 8.81802V3.93576Z" fill="#262626"/>
</svg>
