<svg width="24" height="24" viewBox="0 0 24 24" fill="none" xmlns="http://www.w3.org/2000/svg">
<path fill-rule="evenodd" clip-rule="evenodd" d="M20.5971 1.5C20.2217 1.5 19.8547 1.61111 19.5424 1.81934L14.4634 5.20533C13.1839 6.05835 12.0188 7.0624 10.9915 8.19218C13.105 9.18391 14.8146 10.8935 15.8063 13.007C16.9361 11.9797 17.9401 10.8146 18.7932 9.53508L22.1792 4.45609C22.3874 4.14375 22.4985 3.77677 22.4985 3.40139C22.4985 2.35128 21.6472 1.5 20.5971 1.5ZM12.298 15.5249C12.9553 15.1597 13.5883 14.7563 14.1939 14.3175C13.3821 12.258 11.7405 10.6164 9.681 9.80456C9.24215 10.4102 8.83877 11.0432 8.4736 11.7005L8.19507 12.2018C9.93156 12.6985 11.3 14.0669 11.7967 15.8034L12.298 15.5249ZM6.74849 13.5C4.6774 13.5 2.99849 15.1789 2.99849 17.25C2.99849 18.0784 2.32692 18.75 1.49849 18.75C1.46453 18.75 1.43072 18.7489 1.39714 18.7466C1.12098 18.7284 0.857217 18.8637 0.710953 19.0986C0.56469 19.3336 0.559701 19.63 0.697976 19.8697C1.60378 21.4402 3.3019 22.5 5.24849 22.5C8.14799 22.5 10.4985 20.1495 10.4985 17.25C10.4985 15.1789 8.81958 13.5 6.74849 13.5Z" fill="#262626"/>
</svg>
