<svg width="100" height="100" viewBox="0 0 100 100" fill="none" xmlns="http://www.w3.org/2000/svg">
<g clip-path="url(#clip0_164_38644)">
<path d="M0 12.4979L12.4979 0H24.9957V12.4979L12.4979 24.9957H0V12.4979Z" fill="#FFBE99"/>
<path d="M24.9939 0H12.4961V12.4979H24.9939V0Z" fill="#262626"/>
<path d="M0 37.502L12.4979 24.9956H24.9957V37.502L12.4979 49.9999H0V37.502Z" fill="#FFBE99"/>
<path d="M24.9939 24.9956H12.4961V37.4935H24.9939V24.9956Z" fill="#262626"/>
<path d="M0 62.4979L12.4979 50H24.9957V62.4979L12.4979 74.9957H0V62.4979Z" fill="#FFBE99"/>
<path d="M24.9939 50H12.4961V62.4979H24.9939V50Z" fill="#262626"/>
<path d="M0 87.4935L12.4979 74.9956H24.9957V87.4935L12.4979 99.9999H0V87.4935Z" fill="#FFBE99"/>
<path d="M24.9939 74.9956H12.4961V87.4935H24.9939V74.9956Z" fill="#262626"/>
<path d="M24.9961 12.4979L37.5025 0H50.0004V12.4979L37.5025 24.9957H24.9961V12.4979Z" fill="#FFBE99"/>
<path d="M50.0018 0H37.5039V12.4979H50.0018V0Z" fill="#262626"/>
<path d="M24.9961 37.502L37.5025 24.9956H50.0004V37.502L37.5025 49.9999H24.9961V37.502Z" fill="#FFBE99"/>
<path d="M50.0018 24.9956H37.5039V37.4935H50.0018V24.9956Z" fill="#262626"/>
<path d="M24.9961 62.4979L37.5025 50H50.0004V62.4979L37.5025 74.9957H24.9961V62.4979Z" fill="#FFBE99"/>
<path d="M50.0018 50H37.5039V62.4979H50.0018V50Z" fill="#262626"/>
<path d="M50 12.4979L62.4979 0H74.9957V12.4979L62.4979 24.9957H50V12.4979Z" fill="#FFBE99"/>
<path d="M74.9939 0H62.4961V12.4979H74.9939V0Z" fill="#262626"/>
<path d="M74.9961 12.4979L87.4939 0H100V12.4979L87.4939 24.9957H74.9961V12.4979Z" fill="#FFBE99"/>
<path d="M99.99 0H87.4922V12.4979H99.99V0Z" fill="#262626"/>
<path d="M50 37.502L62.4979 24.9956H74.9957V37.502L62.4979 49.9999H50V37.502Z" fill="#FFBE99"/>
<path d="M74.9939 24.9956H62.4961V37.4935H74.9939V24.9956Z" fill="#262626"/>
</g>
<defs>
<clipPath id="clip0_164_38644">
<rect width="100" height="100" fill="white"/>
</clipPath>
</defs>
</svg>
