<svg width="32" height="21" viewBox="0 0 32 21" fill="none" xmlns="http://www.w3.org/2000/svg">
<g opacity="0.9">
<path d="M30.3013 0.927246C30.4193 0.939892 30.5331 0.95254 30.6511 0.969401C30.5373 0.95254 30.4193 0.939892 30.3013 0.927246Z" fill="#262626"/>
<path d="M37.5897 3.27959L36.9532 2.93816C36.9363 2.92973 36.9153 2.91708 36.8984 2.90865C36.8309 2.87493 36.7635 2.8412 36.6961 2.80748C36.7382 2.82855 36.7846 2.84964 36.8309 2.87072C36.7298 2.81592 36.6286 2.76533 36.5274 2.71054L36.0806 2.5082C36.1186 2.52506 36.1607 2.54614 36.1987 2.563C35.6507 2.31009 35.0943 2.08247 34.521 1.88014C32.072 1.30266 29.5471 1.06238 25.2012 0.990723C33.2564 1.38695 36.0216 2.53771 36.949 2.93394C37.1639 3.04354 37.3789 3.15735 37.5897 3.27959Z" fill="#262626"/>
<path d="M31.1783 0.733615C30.8622 0.657741 30.5461 0.581867 30.2763 0.522854L30.1077 0.489126C29.1803 0.341593 27.3383 0.632452 25.2012 0.999176C25.3866 0.973884 25.5679 0.952807 25.7534 0.931731C29.2899 0.52707 30.3142 0.594517 31.1783 0.737835V0.733615Z" fill="#262626"/>
<path d="M28.5691 0.227695C28.2909 0.189758 27.9453 0.151821 27.6755 0.122314C27.6755 0.122314 27.6671 0.122314 27.6629 0.122314C27.6123 0.13496 27.6038 0.139178 25.2012 0.994867C27.9916 0.252989 28.2656 0.24877 28.6408 0.24034C28.6197 0.24034 28.5944 0.236129 28.5691 0.231914V0.227695Z" fill="#262626"/>
<path d="M26.4654 0.0674321C26.4275 0.0547865 26.3811 0.0379359 26.3432 0.0252903C26.3432 0.0252903 26.339 0.0252903 26.3348 0.0252903C26.0734 0.0126446 25.9132 0.0084258 25.8964 0.0084258C25.7488 0.0084258 25.5634 0 25.4074 0C25.7025 0.0126456 25.7109 0.0210725 25.8458 0.193896C25.7896 0.396226 25.576 0.663187 25.2051 0.994784C26.3896 0.337211 26.4275 0.210749 26.4696 0.0674321H26.4654Z" fill="#262626"/>
<path d="M24.4972 0.193752C25.0705 0.408728 25.1 0.535182 25.2012 0.99464C25.6185 0.0546478 24.7501 0.0377921 23.983 0.0251465C23.7132 0.0377921 23.3549 0.0630767 23.0893 0.0841528L22.8364 0.105237C23.2284 0.0799453 24.0462 0.0251439 24.4972 0.193752Z" fill="#262626"/>
<path d="M24.6319 50.4057C24.7289 50.4057 24.8216 50.4099 24.9186 50.4099H24.9607C24.9607 50.4099 24.9945 50.4099 25.0071 50.4099C25.1167 50.4099 25.2221 50.4099 25.3317 50.4099C25.4244 50.4099 25.5171 50.4099 25.5972 50.4099C25.6014 50.4099 25.6057 50.4099 25.6099 50.4099C23.6962 50.3762 -3.68586 39.9983 0.740115 18.9138C0.740115 18.9138 0.740115 18.9138 0.740115 18.918C0.588367 19.5124 0.440835 20.3133 0.314378 20.9118C0.192137 21.679 0.090972 22.7117 0.00666775 23.4831C-0.44436 42.3968 22.1281 50.1654 24.6319 50.4057Z" fill="#262626"/>
<path d="M20.5056 0.438447C20.455 0.446877 20.4002 0.459526 20.3496 0.467957C23.4309 -0.0589451 24.7166 0.699793 25.2055 0.994858C24.333 0.0337896 22.8155 0.0506473 20.5098 0.438447H20.5056Z" fill="#262626"/>
<path d="M3.20192 12.8185C-7.92203 34.2655 23.2368 49.4065 26.9631 50.3465C26.9884 50.3465 27.0137 50.3465 27.039 50.3423L27.2033 50.3297C27.2286 50.3297 27.2539 50.3255 27.2834 50.3212C27.4731 50.3044 27.7007 50.2791 27.8946 50.2622C27.9199 50.2622 27.9452 50.258 27.9663 50.2538C23.553 46.8985 18.1828 45.0691 13.9296 41.4609C11.8473 39.6947 6.97032 35.5596 4.12084 30.0292C-1.58235 18.9643 3.49277 11.908 5.98396 8.87305C5.89544 8.97421 5.81114 9.07537 5.72683 9.17232L5.30531 9.67393C4.64774 10.5802 3.81734 11.8237 3.223 12.7805C3.21457 12.7932 3.21035 12.8058 3.20192 12.8185Z" fill="#262626"/>
<path d="M19.3671 0.67849C19.3671 0.67849 19.3966 0.67006 19.4134 0.665845C19.3755 0.674276 19.3291 0.682705 19.2954 0.691135C19.0172 0.754364 18.6547 0.851312 18.3807 0.927186C17.8159 1.08315 17.0698 1.31499 16.5218 1.52153C16.1846 1.64799 15.7378 1.8166 15.409 1.9557C15.0128 2.12431 14.4943 2.36879 14.1023 2.55005C13.7018 2.73552 13.1833 3.0095 12.804 3.23291C12.3572 3.49425 11.805 3.83568 11.316 4.15182C6.27883 7.61673 2.30388 13.1766 2.85186 19.4446C4.15015 34.2316 20.8972 44.3734 27.1989 48.1924C28.6546 49.0748 29.4246 49.6874 29.5089 50.0302C29.5089 50.0302 29.5384 50.026 29.551 50.0218C29.8967 49.9586 30.3308 49.8658 30.6765 49.7942C30.6891 49.7942 30.7018 49.7899 30.7144 49.7857C30.8367 49.7436 30.9252 49.5665 31.0095 49.4654C30.7229 48.9132 30.1622 48.5169 27.1315 46.5316C19.3333 41.4227 11.4846 35.5467 6.90268 27.2217C-3.43724 8.42605 16.6145 -1.29845 25.2051 0.990412C23.5401 0.345484 21.5126 0.273826 19.3713 0.674271L19.3671 0.67849Z" fill="#262626"/>
<path d="M28.0844 44.4325C32.8308 47.7878 33.9604 48.5845 32.4598 49.3264C32.4767 49.3222 32.4935 49.318 32.5062 49.3137C32.738 49.2421 32.9994 49.1536 33.2565 49.0693C33.4335 49.0102 33.6064 48.947 33.7792 48.8838C35.9037 47.8974 34.0532 46.5317 29.6272 43.2733C24.7333 39.6693 18.6381 35.1843 13.4703 28.6255C-1.78878 9.26078 14.4988 -0.324616 25.197 0.994746C13.0403 -1.63976 -13.1193 15.3223 28.0802 44.4325H28.0844Z" fill="#262626"/>
<path d="M30.8746 40.664C36.4092 44.9087 38.4831 46.4978 35.7347 48.0828C35.7558 48.0743 35.7769 48.0617 35.798 48.0533C36.2574 47.8341 36.8307 47.5306 37.2733 47.3072C39.4146 46.0552 38.5589 44.601 37.3154 43.2184C32.1097 37.4309 25.1967 33.5951 19.8645 27.9509C2.70433 9.78333 14.2161 0.745915 25.2009 0.998827C14.0053 -0.0212543 -5.98323 12.4052 30.8746 40.6682V40.664Z" fill="#262626"/>
<path d="M35.153 37.1529C40.4262 41.3765 42.3062 43.6485 39.4904 45.9332C39.971 45.5959 40.5822 45.1154 41.0627 44.7487C41.303 44.5506 41.5559 44.3356 41.7962 44.1206C43.9838 42.1184 42.7572 41.0351 28.0377 28.0691C6.70029 9.27766 16.3152 2.64291 23.2703 1.2561C16.9643 2.43215 -0.621539 8.48941 35.153 37.1529Z" fill="#262626"/>
<path d="M24.9185 1.01587C24.4 1.06224 23.8436 1.14233 23.2661 1.25614C24.008 1.11704 24.5897 1.04538 24.9185 1.01587Z" fill="#262626"/>
<path d="M25.2009 0.994873C25.2009 0.994873 25.0829 1.0033 24.9185 1.01594C25.0112 1.00751 25.1081 0.999088 25.2009 0.994873Z" fill="#262626"/>
<path d="M34.1705 28.8827C42.9171 35.9221 46.2007 39.1425 43.3555 42.6411C43.3765 42.62 43.3934 42.6032 43.4103 42.5821C43.8571 42.1016 44.3966 41.4651 44.8181 40.9803C44.8266 40.9677 44.835 40.9592 44.8434 40.9466C47.3346 37.684 44.953 34.2486 34.6848 26.2692C7.89287 5.4545 22.0855 1.56808 25.2048 0.999023C22.9328 1.28566 3.8842 4.51029 34.1747 28.8827H34.1705Z" fill="#262626"/>
<path d="M35.9794 23.2511C45.8767 30.6446 48.5998 34.4256 46.7493 38.2066C46.8251 38.0802 46.8968 37.958 46.9685 37.8357L47.0359 37.7177C47.0865 37.6292 47.1329 37.5491 47.1792 37.469L47.7441 36.3815C47.8115 36.2424 47.879 36.1033 47.9464 35.9684C50.1552 30.9017 41.7838 24.8065 36.2281 20.7641C18.1238 7.59155 20.2398 2.74827 25.2011 1.00317C20.9648 2.10756 13.5292 6.49139 35.9794 23.2595V23.2511Z" fill="#262626"/>
<path d="M36.4596 17.5101C45.1008 23.5968 50.2771 27.6687 49.2022 32.7481C49.2528 32.5752 49.3076 32.4024 49.3539 32.2338C49.5268 31.6015 49.6996 30.8892 49.8387 30.3201C50.5806 25.2576 45.3537 21.3965 36.7673 15.5247C31.0936 11.6425 20.5345 4.41763 25.2008 0.994873C17.8832 4.42184 31.865 14.2728 36.4596 17.5101Z" fill="#262626"/>
<path d="M37.0966 13.0335C46.8337 19.3521 50.1427 22.2184 50.3197 26.5685C50.3239 26.4842 50.3324 26.3957 50.3366 26.3114L50.3661 25.2491L50.3408 24.2206C50.3366 24.1026 50.3324 23.9888 50.3239 23.8708C49.9488 19.3057 43.8662 15.5415 36.1735 10.7867C30.7611 7.44408 24.628 3.65039 25.2055 0.999023C22.6721 3.6799 31.3555 9.31142 37.1008 13.0377L37.0966 13.0335Z" fill="#262626"/>
<path d="M36.4642 8.99949C45.4342 14.0915 48.8106 16.5658 49.8855 20.2963C49.7506 19.6513 49.5314 18.8336 49.3501 18.1423C49.308 17.999 49.2658 17.8599 49.2237 17.7166C47.7652 13.9229 42.8798 11.1998 34.3946 6.74014C28.3963 3.58295 26.4194 2.34789 25.2012 0.999023C25.9009 3.00547 30.3311 5.52194 36.4642 9.00371V8.99949Z" fill="#262626"/>
<path d="M47.9419 14.4246C47.904 14.3487 47.8703 14.2728 47.8323 14.1969L47.3223 13.1895L46.9809 12.5867C46.9176 12.4771 46.8544 12.3675 46.787 12.2579C45.632 10.4622 43.5413 9.12602 40.5485 7.55796C35.604 4.96982 30.3013 3.22894 25.2051 0.994873C26.7942 2.00652 29.7154 3.34697 33.4121 5.0457C43.2209 9.55176 46.2432 11.4992 47.9462 14.4246H47.9419Z" fill="#262626"/>
<path d="M44.882 9.52225C44.8356 9.46324 44.7935 9.41266 44.7429 9.34943C44.7134 9.31149 44.6839 9.27777 44.6502 9.23983C44.6122 9.19346 44.5743 9.1471 44.5364 9.10073C44.1654 8.67078 43.7481 8.20288 43.4151 7.82773C41.2232 5.58102 35.0943 3.28373 25.2012 0.994873C40.2073 5.49251 43.1116 7.60012 44.882 9.52225Z" fill="#262626"/>
<path d="M40.768 5.42927C40.4012 5.14685 40.0008 4.85179 39.6551 4.59888C39.5835 4.54829 39.5118 4.50194 39.4402 4.45135C37.0586 2.95074 32.2743 1.78733 25.2012 0.994873C29.6019 1.64823 37.4717 3.12355 41.0799 5.68219C40.9745 5.59367 40.8691 5.50936 40.768 5.42927Z" fill="#262626"/>
<path d="M30.7821 0.990646C31.368 1.07074 31.9497 1.17612 32.5146 1.30679C33.522 1.4754 33.6485 1.51334 34.4156 1.76204C34.3946 1.75361 34.3693 1.74096 34.3482 1.73675C33.9646 1.585 33.4419 1.40795 33.0499 1.26885H33.0415C32.1183 0.969572 31.035 0.931642 29.7789 0.881059C29.8379 0.885275 29.8927 0.893696 29.9517 0.897911C29.311 0.838898 28.6576 0.805176 27.9959 0.805176C26.98 0.855758 26.8451 0.864198 25.2012 0.999085C27.8146 0.889489 28.9949 0.910561 30.7821 0.994866V0.990646ZM30.2974 0.93164C30.4154 0.944286 30.5292 0.956934 30.6472 0.973795C30.5334 0.956934 30.4154 0.944286 30.2974 0.93164Z" fill="#262626"/>
</g>
</svg>
