<svg width="12" height="10" viewBox="0 0 12 10" fill="none" xmlns="http://www.w3.org/2000/svg">
<path fill-rule="evenodd" clip-rule="evenodd" d="M12 4.99995C12 5.49701 11.5971 5.89995 11.1 5.89995H3.1345L5.7238 8.2512C6.08209 8.59572 6.09326 9.16546 5.74875 9.52375C5.40424 9.88204 4.8345 9.89322 4.4762 9.5487L0.276202 5.6487C0.0997318 5.47902 -1.07012e-08 5.24477 0 4.99995C1.07012e-08 4.75514 0.0997319 4.52089 0.276202 4.3512L4.4762 0.451202C4.8345 0.106688 5.40424 0.11786 5.74875 0.476155C6.09326 0.834449 6.08209 1.40419 5.7238 1.7487L3.1345 4.09995L11.1 4.09995C11.5971 4.09995 12 4.5029 12 4.99995Z" fill="#333333"/>
</svg>
