<svg width="12" height="10" viewBox="0 0 12 10" fill="none" xmlns="http://www.w3.org/2000/svg">
<path fill-rule="evenodd" clip-rule="evenodd" d="M0 4.99995C5.92734e-09 4.5029 0.402944 4.09995 0.9 4.09995H8.8655L6.2762 1.7487C5.91791 1.40419 5.90674 0.834449 6.25125 0.476154C6.59576 0.11786 7.1655 0.106688 7.5238 0.451202L11.7238 4.3512C11.9003 4.52089 12 4.75514 12 4.99995C12 5.24477 11.9003 5.47902 11.7238 5.6487L7.5238 9.5487C7.1655 9.89322 6.59576 9.88204 6.25125 9.52375C5.90674 9.16546 5.91791 8.59572 6.2762 8.2512L8.8655 5.89995H0.9C0.402944 5.89995 -5.92734e-09 5.49701 0 4.99995Z" fill="#333333"/>
</svg>
